<svg id="dds__icon--disc-insert" viewbox="0 0 32 32" xmlns="http://www.w3.org/2000/svg"><title>dds__icon--disc-insert</title><path d="M21.42 5.42v2.14c4.661 0 8.44 3.779 8.44 8.44s-3.779 8.44-8.44 8.44v0 2.14c5.843 0 10.58-4.737 10.58-10.58s-4.737-10.58-10.58-10.58v0zM25.42 16c0-2.209-1.791-4-4-4v0 2.14c1.027 0 1.86 0.833 1.86 1.86s-0.833 1.86-1.86 1.86v0 2.14c2.209 0 4-1.791 4-4v0zM0 28.78h19.28v-25.56h-19.28zM2.14 5.36h15v21.28h-15zM11.32 12.4l-1.52-1.52-5.1 5.12 5.1 5.12 1.52-1.52-2.56-2.56h6.22v-2.12h-6.18z"/></svg>