<svg id="dds__icon--social-networking" viewbox="0 0 32 32" xmlns="http://www.w3.org/2000/svg"><title>dds__icon--social-networking</title><path d="M28 18.5v-5c1.612-0.464 2.772-1.926 2.772-3.658 0-2.099-1.701-3.8-3.8-3.8-1.062 0-2.022 0.436-2.712 1.138l-0.001 0.001-4.56-2.54c0.061-0.251 0.097-0.541 0.1-0.838v-0.002c0-2.099-1.701-3.8-3.8-3.8s-3.8 1.701-3.8 3.8v0c0.003 0.299 0.039 0.589 0.105 0.866l-0.005-0.026-4.58 2.52c-0.677-0.707-1.626-1.149-2.678-1.16h-0.002c-0.059-0.003-0.127-0.005-0.196-0.005-2.099 0-3.8 1.701-3.8 3.8 0 1.799 1.251 3.307 2.93 3.7l0.026 0.005v5c-1.598 0.473-2.744 1.928-2.744 3.65 0 2.099 1.701 3.8 3.8 3.8 1.048 0 1.997-0.424 2.685-1.11l-0 0 4.58 2.52c-0.061 0.251-0.097 0.541-0.1 0.838v0.002c0 2.099 1.701 3.8 3.8 3.8s3.8-1.701 3.8-3.8v0c-0.003-0.299-0.039-0.589-0.105-0.866l0.005 0.026 4.58-2.52c0.68 0.68 1.62 1.1 2.657 1.1 0.008 0 0.016-0 0.024-0h-0.001c2.069-0.039 3.731-1.725 3.731-3.799 0-1.71-1.13-3.157-2.684-3.634l-0.027-0.007zM23.12 22.14c-0.015 0.123-0.023 0.266-0.023 0.41s0.008 0.287 0.025 0.427l-0.002-0.017-4.44 2.54c-0.439-0.432-0.984-0.758-1.593-0.933l-0.027-0.007v-4.92c1.595-0.467 2.74-1.917 2.74-3.634 0-0.002 0-0.004 0-0.006v0c-0.001-0.299-0.038-0.588-0.105-0.865l0.005 0.025 4.6-2.58c0.429 0.422 0.96 0.74 1.554 0.913l0.026 0.007v5c-1.587 0.472-2.726 1.911-2.74 3.618v0.002zM6.12 18.5v-5c0.629-0.171 1.169-0.491 1.6-0.92l-0 0 4.58 2.58c-0.061 0.251-0.097 0.541-0.1 0.838v0.002c0 0.002 0 0.004 0 0.006 0 1.717 1.145 3.167 2.713 3.627l0.027 0.007v4.92c-0.636 0.182-1.181 0.508-1.62 0.94l0-0-4.56-2.54c0.015-0.123 0.023-0.266 0.023-0.41s-0.008-0.287-0.025-0.427l0.002 0.017c0-0.011 0-0.023 0-0.036 0-1.681-1.097-3.105-2.613-3.597l-0.027-0.008zM23.26 10.72l-4.6 2.56c-0.687-0.667-1.625-1.078-2.66-1.078s-1.973 0.411-2.661 1.079l0.001-0.001-4.6-2.56c0.076-0.251 0.119-0.54 0.12-0.84v-0c0.015-0.126 0.024-0.272 0.024-0.42s-0.009-0.294-0.025-0.437l0.002 0.017 4.46-2.54c0.689 0.679 1.636 1.098 2.68 1.098s1.991-0.419 2.68-1.098l-0 0 4.56 2.54c-0.015 0.126-0.024 0.272-0.024 0.42s0.009 0.294 0.025 0.437l-0.002-0.017c0.001 0.3 0.044 0.589 0.125 0.861l-0.005-0.021zM16 17.68c-0.928 0-1.68-0.752-1.68-1.68s0.752-1.68 1.68-1.68c0.928 0 1.68 0.752 1.68 1.68v0c-0.011 0.923-0.757 1.669-1.679 1.68h-0.001zM26.96 8.2c0.919 0.011 1.66 0.759 1.66 1.68 0 0 0 0 0 0v0c0 0.917-0.743 1.66-1.66 1.66v0c-0 0-0 0-0 0-0.921 0-1.669-0.741-1.68-1.659v-0.001c0.011-0.923 0.757-1.669 1.679-1.68h0.001zM16 2.14c0 0 0 0 0 0 0.921 0 1.669 0.741 1.68 1.659v0.001c0 0.928-0.752 1.68-1.68 1.68s-1.68-0.752-1.68-1.68v0c0.011-0.919 0.759-1.66 1.68-1.66 0 0 0 0 0 0v0zM3.38 9.88c-0-0.006-0-0.013-0-0.020 0-0.928 0.752-1.68 1.68-1.68s1.68 0.752 1.68 1.68c0 0.928-0.752 1.68-1.68 1.68-0.007 0-0.014-0-0.021-0h0.001c-0.917 0-1.66-0.743-1.66-1.66v0zM5.040 23.88c-0.928 0-1.68-0.752-1.68-1.68s0.752-1.68 1.68-1.68c0.928 0 1.68 0.752 1.68 1.68v0c-0.033 0.891-0.763 1.6-1.659 1.6-0.007 0-0.015-0-0.022-0h0.001zM16 29.88c-0 0-0 0-0 0-0.921 0-1.669-0.741-1.68-1.659v-0.001c0-0.928 0.752-1.68 1.68-1.68s1.68 0.752 1.68 1.68v0c-0.022 0.91-0.766 1.64-1.68 1.64-0 0-0 0-0.001 0h0zM26.96 23.88c-0.055 0.006-0.119 0.010-0.183 0.010-0.928 0-1.68-0.752-1.68-1.68s0.752-1.68 1.68-1.68c0.064 0 0.128 0.004 0.191 0.011l-0.008-0.001c0.846 0.095 1.497 0.807 1.497 1.67s-0.651 1.575-1.489 1.669l-0.008 0.001z"/></svg>